<?xml version="1.0" encoding="utf-8"?>
<!-- Generator: Adobe Illustrator 26.3.1, SVG Export Plug-In . SVG Version: 6.00 Build 0)  -->
<svg version="1.1" id="visual" xmlns="http://www.w3.org/2000/svg" xmlns:xlink="http://www.w3.org/1999/xlink" x="0px" y="0px"
	 viewBox="0 0 900 600" style="enable-background:new 0 0 900 600;" xml:space="preserve">
<style type="text/css">
	.st0{fill:#FEC600;}
</style>
<path class="st0" d="M0,503l25-20.5c25-20.5,75-61.5,125-81.2c50-19.6,100-18,150-4.1c50,13.8,100,39.8,150,56.5
	c50,16.6,100,24,150,20.3s100-18.3,150-11.5s100,35.2,125,49.3l25,14.2v75h-25c-25,0-75,0-125,0s-100,0-150,0s-100,0-150,0
	s-100,0-150,0s-100,0-150,0s-100,0-125,0H0V503z"/>
</svg>
